<svg xmlns="http://www.w3.org/2000/svg" viewBox="0 0 800 1000" fill="none">
  <defs>
    <linearGradient id="bg" x1="0" y1="0" x2="1" y2="1">
      <stop offset="0%" stop-color="#f7f5f2"/>
      <stop offset="100%" stop-color="#e8e4de"/>
    </linearGradient>
    <linearGradient id="accent" x1="0" y1="0" x2="1" y2="1">
      <stop offset="0%" stop-color="#ff6b00"/>
      <stop offset="100%" stop-color="#e05a00"/>
    </linearGradient>
  </defs>
  <rect width="800" height="1000" fill="url(#bg)"/>
  <rect x="80" y="120" width="640" height="760" rx="32" fill="#fff" stroke="#141210" stroke-opacity="0.06"/>
  <rect x="120" y="180" width="560" height="340" rx="20" fill="#2a2622"/>
  <rect x="160" y="220" width="180" height="120" rx="8" fill="#ff6b00" fill-opacity="0.25"/>
  <rect x="360" y="220" width="140" height="260" rx="8" fill="#ffffff" fill-opacity="0.12"/>
  <rect x="520" y="220" width="120" height="200" rx="8" fill="#ffffff" fill-opacity="0.08"/>
  <path d="M120 560 H680" stroke="#141210" stroke-opacity="0.08"/>
  <circle cx="200" cy="660" r="48" fill="url(#accent)"/>
  <rect x="280" y="630" width="320" height="18" rx="9" fill="#141210" fill-opacity="0.12"/>
  <rect x="280" y="670" width="240" height="14" rx="7" fill="#141210" fill-opacity="0.08"/>
  <rect x="120" y="760" width="220" height="80" rx="16" fill="#ff6b00" fill-opacity="0.12"/>
  <rect x="360" y="760" width="220" height="80" rx="16" fill="#ff6b00" fill-opacity="0.08"/>
  <rect x="600" y="760" width="80" height="80" rx="16" fill="#c9a227" fill-opacity="0.15"/>
</svg>
