<svg xmlns="http://www.w3.org/2000/svg" viewBox="0 0 1200 900" fill="none">
  <defs>
    <linearGradient id="sky" x1="0" y1="0" x2="0" y2="1">
      <stop offset="0%" stop-color="#3d3834"/>
      <stop offset="100%" stop-color="#141210"/>
    </linearGradient>
    <linearGradient id="glow" x1="0" y1="0" x2="1" y2="1">
      <stop offset="0%" stop-color="#ff6b00" stop-opacity="0.55"/>
      <stop offset="100%" stop-color="#c9a227" stop-opacity="0.2"/>
    </linearGradient>
    <linearGradient id="glass" x1="0" y1="0" x2="0" y2="1">
      <stop offset="0%" stop-color="#ffffff" stop-opacity="0.22"/>
      <stop offset="100%" stop-color="#ffffff" stop-opacity="0.06"/>
    </linearGradient>
  </defs>
  <rect width="1200" height="900" fill="url(#sky)"/>
  <circle cx="920" cy="180" r="280" fill="url(#glow)"/>
  <circle cx="200" cy="700" r="200" fill="#ff6b00" fill-opacity="0.12"/>
  <g opacity="0.15" stroke="#fff" stroke-width="1">
    <path d="M0 120h1200M0 240h1200M0 360h1200M0 480h1200M0 600h1200M0 720h1200"/>
    <path d="M120 0v900M240 0v900M360 0v900M480 0v900M600 0v900M720 0v900M840 0v900M960 0v900M1080 0v900"/>
  </g>
  <rect x="140" y="420" width="420" height="320" rx="8" fill="#1e1c1a" stroke="#ff6b00" stroke-opacity="0.5" stroke-width="2"/>
  <rect x="180" y="360" width="340" height="60" fill="#252220"/>
  <rect x="620" y="280" width="440" height="460" rx="8" fill="#1a1816" stroke="#ffffff" stroke-opacity="0.12" stroke-width="2"/>
  <rect x="660" y="320" width="120" height="160" fill="url(#glass)"/>
  <rect x="800" y="320" width="120" height="160" fill="url(#glass)"/>
  <rect x="940" y="320" width="80" height="160" fill="url(#glass)"/>
  <rect x="660" y="500" width="120" height="120" fill="url(#glass)"/>
  <rect x="800" y="500" width="120" height="120" fill="url(#glass)"/>
  <rect x="940" y="500" width="80" height="120" fill="url(#glass)"/>
  <path d="M600 740 L760 580 L920 680 L1080 520 L1080 740 Z" fill="#252220" stroke="#ff6b00" stroke-opacity="0.35"/>
  <circle cx="340" cy="620" r="36" fill="#ff6b00"/>
  <rect x="318" y="656" width="44" height="84" rx="6" fill="#ff6b00" fill-opacity="0.85"/>
</svg>
